<svg width="20" height="20" viewBox="0 0 20 20" fill="none" xmlns="http://www.w3.org/2000/svg">
<path d="M11.6605 17.516L10.7933 18.3832C10.4261 18.7504 9.8324 18.7504 9.46912 18.3832L1.87537 10.7934C1.50818 10.4262 1.50818 9.83242 1.87537 9.46914L9.46912 1.87539C9.8363 1.5082 10.4301 1.5082 10.7933 1.87539L11.6605 2.74258C12.0316 3.11367 12.0238 3.71914 11.6449 4.08242L6.93787 8.5668H18.1644C18.684 8.5668 19.1019 8.98476 19.1019 9.5043V10.7543C19.1019 11.2738 18.684 11.6918 18.1644 11.6918H6.93787L11.6449 16.1762C12.0277 16.5395 12.0355 17.1449 11.6605 17.516Z" fill="#FFFAFA"/>
</svg>
