<svg width="20" height="20" viewBox="0 0 20 20" fill="none" xmlns="http://www.w3.org/2000/svg">
<g clip-path="url(#clip0_20_2247)">
<path d="M19.7263 6.82796L18.1794 5.28108C17.8122 4.91389 17.2184 4.91389 16.8552 5.28108L7.4997 14.6365L3.14813 10.2811C2.78095 9.91389 2.1872 9.91389 1.82391 10.2811L0.273132 11.8319C-0.0940552 12.199 -0.0940552 12.7928 0.273132 13.16L6.83563 19.7264C7.20282 20.0936 7.79657 20.0936 8.15985 19.7264L19.7224 8.15608C20.0895 7.78499 20.0895 7.19124 19.7263 6.82796ZM7.05829 10.9686C7.30048 11.2147 7.69892 11.2147 7.9411 10.9686L16.0661 2.83577C16.3083 2.58968 16.3083 2.19514 16.0661 1.95296L14.3005 0.183426C14.0583 -0.0626679 13.6599 -0.0626679 13.4177 0.183426L7.4997 6.10139L5.33563 3.93343C5.09345 3.68733 4.69501 3.68733 4.45282 3.93343L2.68329 5.70296C2.4411 5.94905 2.4411 6.34358 2.68329 6.58577L7.05829 10.9686Z" fill="#FFFAFA"/>
</g>
<defs>
<clipPath id="clip0_20_2247">
<rect width="20" height="20" fill="white"/>
</clipPath>
</defs>
</svg>
