<svg width="20" height="20" viewBox="0 0 20 20" fill="none" xmlns="http://www.w3.org/2000/svg">
<path d="M16.6163 1.6163C17.1045 1.12814 17.8957 1.12814 18.3839 1.6163C18.8719 2.10446 18.872 2.89575 18.3839 3.38388L11.7677 10.0001L18.3839 16.6163C18.8719 17.1045 18.872 17.8958 18.3839 18.3839C17.8958 18.872 17.1045 18.8719 16.6163 18.3839L10.0001 11.7677L3.38388 18.3839C2.89575 18.872 2.10446 18.8719 1.6163 18.3839C1.12814 17.8957 1.12814 17.1045 1.6163 16.6163L8.23251 10.0001L1.6163 3.38388C1.12814 2.89572 1.12814 2.10446 1.6163 1.6163C2.10445 1.12814 2.89572 1.12814 3.38388 1.6163L10.0001 8.23251L16.6163 1.6163Z" fill="#FFFAFA"/>
</svg>
