<svg width="20" height="20" viewBox="0 0 20 20" fill="none" xmlns="http://www.w3.org/2000/svg">
<path d="M13.8891 2C13.0766 2.75391 12.343 3.54648 11.693 4.34258C10.6281 2.87578 9.30781 1.38789 7.8125 0C3.97422 3.56133 1.25 8.20156 1.25 11C1.25 15.9707 5.16758 20 10 20C14.8324 20 18.75 15.9707 18.75 11C18.75 8.91914 16.7195 4.62734 13.8891 2ZM13.1285 15.3066C12.2824 15.8988 11.2391 16.25 10.1117 16.25C7.29336 16.25 5 14.3852 5 11.3574C5 9.84922 5.94961 8.52031 7.84336 6.25C8.11406 6.56172 11.7039 11.1461 11.7039 11.1461L13.9941 8.53359C14.1559 8.80117 14.3031 9.06289 14.4344 9.31367C15.5027 11.3523 15.052 13.9609 13.1285 15.3066Z" fill="#FFFAFA"/>
</svg>
