<svg width="20" height="20" viewBox="0 0 20 20" fill="none" xmlns="http://www.w3.org/2000/svg">
<g clip-path="url(#clip0_20_2240)">
<path d="M19.6875 9.98168C19.6974 15.3192 15.3445 19.6837 10.007 19.6875C7.70176 19.6891 5.58426 18.8855 3.92023 17.5425C3.48754 17.1933 3.4552 16.5448 3.8484 16.1516L4.28852 15.7115C4.6248 15.3752 5.16168 15.3384 5.53426 15.634C6.76023 16.6068 8.31176 17.1875 10 17.1875C13.9729 17.1875 17.1875 13.9722 17.1875 10C17.1875 6.02715 13.9722 2.8125 10 2.8125C8.0932 2.8125 6.36137 3.55348 5.07547 4.76297L7.05805 6.74555C7.4518 7.1393 7.17293 7.8125 6.61613 7.8125H0.9375C0.592305 7.8125 0.3125 7.5327 0.3125 7.1875V1.50887C0.3125 0.95207 0.985703 0.673203 1.37945 1.06691L3.30805 2.99551C5.04723 1.33344 7.40438 0.3125 10 0.3125C15.3441 0.3125 19.6776 4.63984 19.6875 9.98168ZM12.6206 13.0592L13.0043 12.5658C13.3222 12.1571 13.2486 11.5681 12.8399 11.2502L11.25 10.0136V5.9375C11.25 5.41973 10.8303 5 10.3125 5H9.6875C9.16973 5 8.75 5.41973 8.75 5.9375V11.2364L11.305 13.2236C11.7137 13.5415 12.3027 13.4679 12.6206 13.0592Z" fill="#FFFAFA"/>
</g>
<defs>
<clipPath id="clip0_20_2240">
<rect width="20" height="20" fill="white"/>
</clipPath>
</defs>
</svg>
