<svg width="300" height="300" viewBox="0 0 300 300" fill="none" xmlns="http://www.w3.org/2000/svg">
<path d="M170.072 288.826C167.428 292.033 165.086 295.013 165.086 295.013C165.086 295.013 152.963 300 150 300C147.037 299.735 134.914 295.013 134.914 295.013C134.914 295.013 132.638 292.117 130.039 288.962L137.069 290.768H161.853L170.072 288.826Z" fill="#FFFAFA"/>
<path fill-rule="evenodd" clip-rule="evenodd" d="M257.22 0C257.22 0 260.952 21.8867 261.53 36.0808C261.955 46.5028 261.175 62.7889 260.73 70.7086C260.564 73.6716 259.103 76.3903 256.93 78.4463C254.446 80.7964 251.246 84.1852 249.407 87.5489C246.093 93.6098 243.211 103.732 243.211 103.732C243.211 103.732 247.263 103.817 249.946 102.936C252.629 102.056 256.95 99.2221 256.95 99.2221C256.95 99.2221 252.787 116.338 249.946 124.16C247.106 131.982 241.864 143.792 241.864 143.792C241.864 143.792 246.427 155.078 252.371 163.159C258.315 171.241 273.922 186.771 273.922 186.771C273.922 186.771 270.297 187.217 267.457 188.097C264.616 188.978 257.759 189.689 257.759 189.689C257.759 189.689 262.205 195.556 265.571 198.975C268.938 202.394 275 207.199 275 207.199C275 207.199 267.014 211.086 262.069 213.832C257.124 216.577 249.677 221.26 249.677 221.26C249.677 221.26 252.093 224.817 253.987 227.096C255.881 229.376 259.914 232.402 259.914 232.402C259.914 232.402 241.056 234.525 213.578 249.647C186.099 264.769 182.328 277.503 182.328 277.503C182.328 277.503 176.423 281.37 172.899 285.462C172.231 286.238 171.535 287.062 170.847 287.889C167.433 288.092 162.918 288.294 160.506 288.115C156.298 287.805 150 284.932 150 284.932C150 284.932 142.557 287.805 138.416 288.115C136.148 288.286 132.243 288.109 129.174 287.916C128.479 287.08 127.776 286.246 127.101 285.462C123.577 281.37 117.672 277.503 117.672 277.503C117.672 277.503 113.901 264.769 86.4224 249.647C58.944 234.525 40.0862 232.402 40.0862 232.402C40.0862 232.402 44.1192 229.376 46.0129 227.096C47.9066 224.817 50.3233 221.26 50.3233 221.26C50.3233 221.26 42.8757 216.577 37.931 213.832C32.9864 211.086 25 207.199 25 207.199C25 207.199 31.0623 202.394 34.4289 198.975C37.7955 195.556 42.2414 189.689 42.2414 189.689C42.2414 189.689 35.3837 188.978 32.5431 188.097C29.7025 187.217 26.0776 186.771 26.0776 186.771C26.0776 186.771 41.6852 171.241 47.6293 163.159C53.5734 155.078 58.1358 143.792 58.1358 143.792C58.1358 143.792 52.8944 131.982 50.0539 124.16C47.2133 116.338 43.0496 99.2221 43.0496 99.2221C43.0496 99.2221 47.3711 102.056 50.0539 102.936C52.7366 103.817 56.7888 103.732 56.7888 103.732C56.7888 103.732 53.9067 93.6098 50.5927 87.5489C48.7535 84.1852 45.5537 80.7964 43.0701 78.4463C40.8972 76.3903 39.436 73.6716 39.2696 70.7086C38.825 62.7889 38.045 46.5028 38.4698 36.0808C39.0485 21.8867 42.7802 0 42.7802 0C42.7802 0 74.7273 25.7778 90.4634 40.8561C106.199 55.9345 126.562 79.0593 126.562 79.0593C126.562 79.0593 148.114 76.6716 150 76.6716C151.886 76.6716 173.438 79.0593 173.438 79.0593C173.438 79.0593 193.801 55.9345 209.537 40.8561C225.273 25.7778 257.22 0 257.22 0ZM149.731 254.422C144.882 254.422 140.641 254.406 138.955 255.484C137.269 256.561 136.35 257.944 135.183 259.463C134.017 260.982 132.144 264.214 131.95 267.422C131.757 270.63 135.453 274.85 135.453 274.85L147.575 281.483H151.886L163.739 274.85C163.739 274.85 168.807 270.63 168.319 267.422C167.831 264.214 166.282 261.225 165.086 259.728C163.89 258.231 162.965 256.605 161.045 255.484C159.126 254.362 154.58 254.422 149.731 254.422ZM81.8427 173.241C86.6739 176.599 92.2144 189.19 98.0065 193.403C103.799 197.617 109.052 194.995 116.864 198.975C124.677 202.954 127.371 216.219 127.371 216.219C126.563 208.526 125.215 196.852 114.44 187.567C103.674 178.29 81.8852 173.251 81.8427 173.241ZM218.157 172.975C218.157 172.975 196.336 178.016 185.56 187.302C174.785 196.587 173.437 208.26 172.629 215.954C172.629 215.954 175.323 202.689 183.136 198.709C190.948 194.73 196.201 197.352 201.994 193.138C207.786 188.924 213.326 176.334 218.157 172.975ZM113.093 121.507C113.083 121.518 108.906 125.876 107.435 128.67C105.963 131.468 106.088 136.895 108.244 141.67C110.399 146.445 112.015 146.445 121.444 153.078C130.873 159.71 130.334 165.282 134.644 164.486C138.955 163.69 134.106 152.017 129.795 148.037C125.485 144.058 121.175 143.527 116.325 140.874C111.476 138.221 110.662 134.846 110.399 131.323C110.136 127.804 113.087 121.518 113.093 121.507ZM186.701 121.507C186.701 121.507 189.658 127.801 189.395 131.323C189.132 134.846 188.317 138.221 183.468 140.874C178.619 143.527 174.309 144.058 169.998 148.037C165.688 152.017 160.839 163.69 165.149 164.486C169.46 165.282 168.921 159.71 178.35 153.078C187.779 146.445 189.395 146.445 191.55 141.67C193.705 136.895 193.831 131.468 192.358 128.67C190.886 125.873 186.701 121.507 186.701 121.507ZM169.127 92.8549C169.127 92.8549 162.392 96.0385 161.584 102.671C160.776 109.303 163.964 113.634 162.123 120.977C160.512 127.402 152.155 129.997 150 129.997C147.845 129.997 139.717 128.315 137.877 120.977C136.036 113.634 139.224 109.303 138.416 102.671C137.608 96.0385 130.873 92.8549 130.873 92.8549C130.873 92.8549 134.644 97.7811 134.644 103.997C134.644 110.214 130.065 112.752 130.065 119.385C130.065 126.017 133.297 129.732 140.436 133.313C147.571 136.893 149.997 142.195 150 142.201C150.561 141.187 153.316 136.447 159.564 133.313C166.703 129.732 169.935 126.017 169.935 119.385C169.935 112.752 165.356 110.214 165.356 103.997C165.356 97.7811 169.127 92.8549 169.127 92.8549Z" fill="#FFFAFA"/>
</svg>
