<svg width="20" height="20" viewBox="0 0 20 20" fill="none" xmlns="http://www.w3.org/2000/svg">
<g clip-path="url(#clip0_20_2244)">
<path d="M20 12.5V18.75C20 19.4402 19.4402 20 18.75 20H12.5C11.8098 20 11.25 19.4402 11.25 18.75V12.5C11.25 11.8098 11.8098 11.25 12.5 11.25H18.75C19.4402 11.25 20 11.8098 20 12.5ZM5 10C2.23867 10 0 12.2387 0 15C0 17.7613 2.23867 20 5 20C7.76133 20 10 17.7613 10 15C10 12.2387 7.76133 10 5 10Z" fill="#FFFAFA"/>
<path d="M15.4257 7.67491C15.9206 8.50811 15.3019 9.54991 14.312 9.54991H6.88782C5.89798 9.54991 5.27923 8.50811 5.77415 7.67491L9.48626 1.42491C9.98118 0.591702 11.2187 0.591702 11.7136 1.42491L15.4257 7.67491Z" fill="#FFFAFA"/>
</g>
<defs>
<clipPath id="clip0_20_2244">
<rect width="20" height="20" fill="white"/>
</clipPath>
</defs>
</svg>
