<svg width="20" height="20" viewBox="0 0 20 20" fill="none" xmlns="http://www.w3.org/2000/svg">
<g clip-path="url(#clip0_84_1142)">
<path d="M2.5 18.125C2.5 18.6223 2.69754 19.0992 3.04917 19.4508C3.40081 19.8025 3.87772 20 4.375 20H15.625C16.1223 20 16.5992 19.8025 16.9508 19.4508C17.3025 19.0992 17.5 18.6223 17.5 18.125V5.00001H2.5V18.125ZM13.125 8.12501C13.125 7.95925 13.1908 7.80028 13.3081 7.68306C13.4253 7.56585 13.5842 7.50001 13.75 7.50001C13.9158 7.50001 14.0747 7.56585 14.1919 7.68306C14.3092 7.80028 14.375 7.95925 14.375 8.12501V16.875C14.375 17.0408 14.3092 17.1997 14.1919 17.3169C14.0747 17.4342 13.9158 17.5 13.75 17.5C13.5842 17.5 13.4253 17.4342 13.3081 17.3169C13.1908 17.1997 13.125 17.0408 13.125 16.875V8.12501ZM9.375 8.12501C9.375 7.95925 9.44085 7.80028 9.55806 7.68306C9.67527 7.56585 9.83424 7.50001 10 7.50001C10.1658 7.50001 10.3247 7.56585 10.4419 7.68306C10.5592 7.80028 10.625 7.95925 10.625 8.12501V16.875C10.625 17.0408 10.5592 17.1997 10.4419 17.3169C10.3247 17.4342 10.1658 17.5 10 17.5C9.83424 17.5 9.67527 17.4342 9.55806 17.3169C9.44085 17.1997 9.375 17.0408 9.375 16.875V8.12501ZM5.625 8.12501C5.625 7.95925 5.69085 7.80028 5.80806 7.68306C5.92527 7.56585 6.08424 7.50001 6.25 7.50001C6.41576 7.50001 6.57473 7.56585 6.69194 7.68306C6.80915 7.80028 6.875 7.95925 6.875 8.12501V16.875C6.875 17.0408 6.80915 17.1997 6.69194 17.3169C6.57473 17.4342 6.41576 17.5 6.25 17.5C6.08424 17.5 5.92527 17.4342 5.80806 17.3169C5.69085 17.1997 5.625 17.0408 5.625 16.875V8.12501ZM18.125 1.25001H13.4375L13.0703 0.519538C12.9925 0.363372 12.8727 0.232008 12.7243 0.140225C12.576 0.0484421 12.4049 -0.00011828 12.2305 6.84872e-06H7.76562C7.59155 -0.000662313 7.42082 0.047717 7.27297 0.139602C7.12513 0.231487 7.00615 0.363161 6.92969 0.519538L6.5625 1.25001H1.875C1.70924 1.25001 1.55027 1.31585 1.43306 1.43307C1.31585 1.55028 1.25 1.70925 1.25 1.87501L1.25 3.12501C1.25 3.29077 1.31585 3.44974 1.43306 3.56695C1.55027 3.68416 1.70924 3.75001 1.875 3.75001H18.125C18.2908 3.75001 18.4497 3.68416 18.5669 3.56695C18.6842 3.44974 18.75 3.29077 18.75 3.12501V1.87501C18.75 1.70925 18.6842 1.55028 18.5669 1.43307C18.4497 1.31585 18.2908 1.25001 18.125 1.25001Z" fill="#FFFAFA"/>
</g>
<defs>
<clipPath id="clip0_84_1142">
<rect width="20" height="20" fill="white"/>
</clipPath>
</defs>
</svg>
